<svg width="23" height="20" viewBox="0 0 23 20" fill="none" xmlns="http://www.w3.org/2000/svg">
<path d="M10.88 19.44L16.41 13.9C16.78 13.53 16.99 13.02 16.99 12.49V2.5C16.99 1.4 16.09 0.5 14.99 0.5H6.00002C5.20002 0.5 4.48002 0.98 4.17002 1.71L0.910022 9.32C0.0600216 11.3 1.51002 13.5 3.66002 13.5H9.31002L8.36002 18.08C8.26002 18.58 8.41002 19.09 8.77002 19.45C9.36002 20.03 10.3 20.03 10.88 19.44ZM21 0.5C19.9 0.5 19 1.4 19 2.5V10.5C19 11.6 19.9 12.5 21 12.5C22.1 12.5 23 11.6 23 10.5V2.5C23 1.4 22.1 0.5 21 0.5Z" fill="white"/>
</svg>
