<svg width="23" height="20" viewBox="0 0 23 20" fill="none" xmlns="http://www.w3.org/2000/svg">
<path d="M12.12 0.559969L6.58 6.09997C6.21 6.46997 6 6.97997 6 7.50997V17.5C6 18.6 6.9 19.5 8 19.5H17C17.8 19.5 18.52 19.02 18.84 18.29L22.1 10.68C22.94 8.69997 21.49 6.49997 19.34 6.49997H13.69L14.64 1.91997C14.74 1.41997 14.59 0.909969 14.23 0.549969C13.64 -0.0300311 12.7 -0.0300311 12.12 0.559969ZM2 19.5C3.1 19.5 4 18.6 4 17.5V9.49997C4 8.39997 3.1 7.49997 2 7.49997C0.9 7.49997 0 8.39997 0 9.49997V17.5C0 18.6 0.9 19.5 2 19.5Z" fill="white"/>
</svg>
